<mxfile host="www.draw.io" modified="2023-04-13T19:58:28.232Z" agent="Mozilla/5.0 (Windows NT 10.0; Win64; x64) AppleWebKit/537.36 (KHTML, like Gecko) Chrome/111.0.0.0 Safari/537.36" etag="2YyLh6g93FfTIlEswOTm" version="21.1.7" type="device">
  <diagram name="Страница 1" id="NzNe0ZoZgYX5Fp__9Vss">
    <mxGraphModel dx="1195" dy="663" grid="0" gridSize="10" guides="1" tooltips="1" connect="1" arrows="1" fold="1" page="1" pageScale="1" pageWidth="827" pageHeight="1169" math="0" shadow="0">
      <root>
        <mxCell id="0" />
        <mxCell id="1" parent="0" />
        <mxCell id="YYnpD3Vnh-vj3eKZaliB-47" value="" style="rounded=0;whiteSpace=wrap;html=1;fillColor=none;" parent="1" vertex="1">
          <mxGeometry x="220" y="10" width="410" height="490" as="geometry" />
        </mxCell>
        <mxCell id="YYnpD3Vnh-vj3eKZaliB-32" style="rounded=0;orthogonalLoop=1;jettySize=auto;html=1;" parent="1" source="YYnpD3Vnh-vj3eKZaliB-1" target="YYnpD3Vnh-vj3eKZaliB-11" edge="1">
          <mxGeometry relative="1" as="geometry" />
        </mxCell>
        <mxCell id="YYnpD3Vnh-vj3eKZaliB-33" style="rounded=0;orthogonalLoop=1;jettySize=auto;html=1;" parent="1" source="YYnpD3Vnh-vj3eKZaliB-1" target="YYnpD3Vnh-vj3eKZaliB-10" edge="1">
          <mxGeometry relative="1" as="geometry" />
        </mxCell>
        <mxCell id="YYnpD3Vnh-vj3eKZaliB-35" style="rounded=0;orthogonalLoop=1;jettySize=auto;html=1;entryX=0;entryY=1;entryDx=0;entryDy=0;" parent="1" source="YYnpD3Vnh-vj3eKZaliB-1" target="YYnpD3Vnh-vj3eKZaliB-9" edge="1">
          <mxGeometry relative="1" as="geometry" />
        </mxCell>
        <mxCell id="YYnpD3Vnh-vj3eKZaliB-36" style="rounded=0;orthogonalLoop=1;jettySize=auto;html=1;" parent="1" source="YYnpD3Vnh-vj3eKZaliB-1" target="YYnpD3Vnh-vj3eKZaliB-7" edge="1">
          <mxGeometry relative="1" as="geometry" />
        </mxCell>
        <mxCell id="YYnpD3Vnh-vj3eKZaliB-1" value="&#xa;&lt;span style=&quot;font-size:14.0pt;line-height:150%;&#xa;font-family:&amp;quot;Times New Roman&amp;quot;,serif;mso-fareast-font-family:Calibri;mso-fareast-theme-font:&#xa;minor-latin;mso-bidi-theme-font:minor-bidi;mso-ansi-language:RU;mso-fareast-language:&#xa;EN-US;mso-bidi-language:AR-SA&quot;&gt;Гость&lt;/span&gt;&#xa;&#xa;&#xa;&#xa;" style="shape=umlActor;verticalLabelPosition=bottom;verticalAlign=top;html=1;outlineConnect=0;" parent="1" vertex="1">
          <mxGeometry x="90" y="40" width="30" height="60" as="geometry" />
        </mxCell>
        <mxCell id="YYnpD3Vnh-vj3eKZaliB-38" style="edgeStyle=orthogonalEdgeStyle;rounded=0;orthogonalLoop=1;jettySize=auto;html=1;" parent="1" source="YYnpD3Vnh-vj3eKZaliB-3" target="YYnpD3Vnh-vj3eKZaliB-1" edge="1">
          <mxGeometry relative="1" as="geometry" />
        </mxCell>
        <mxCell id="YYnpD3Vnh-vj3eKZaliB-39" style="rounded=0;orthogonalLoop=1;jettySize=auto;html=1;entryX=0;entryY=0.5;entryDx=0;entryDy=0;" parent="1" source="YYnpD3Vnh-vj3eKZaliB-3" target="YYnpD3Vnh-vj3eKZaliB-15" edge="1">
          <mxGeometry relative="1" as="geometry" />
        </mxCell>
        <mxCell id="YYnpD3Vnh-vj3eKZaliB-40" style="rounded=0;orthogonalLoop=1;jettySize=auto;html=1;entryX=0;entryY=0.5;entryDx=0;entryDy=0;" parent="1" source="YYnpD3Vnh-vj3eKZaliB-3" target="YYnpD3Vnh-vj3eKZaliB-13" edge="1">
          <mxGeometry relative="1" as="geometry" />
        </mxCell>
        <mxCell id="YYnpD3Vnh-vj3eKZaliB-41" style="rounded=0;orthogonalLoop=1;jettySize=auto;html=1;" parent="1" source="YYnpD3Vnh-vj3eKZaliB-3" target="YYnpD3Vnh-vj3eKZaliB-20" edge="1">
          <mxGeometry relative="1" as="geometry" />
        </mxCell>
        <mxCell id="YYnpD3Vnh-vj3eKZaliB-42" style="rounded=0;orthogonalLoop=1;jettySize=auto;html=1;" parent="1" source="YYnpD3Vnh-vj3eKZaliB-3" edge="1">
          <mxGeometry relative="1" as="geometry">
            <mxPoint x="360" y="120" as="targetPoint" />
          </mxGeometry>
        </mxCell>
        <mxCell id="YYnpD3Vnh-vj3eKZaliB-3" value="&#xa;&lt;span style=&quot;font-size:14.0pt;line-height:150%;&#xa;font-family:&amp;quot;Times New Roman&amp;quot;,serif;mso-fareast-font-family:Calibri;mso-fareast-theme-font:&#xa;minor-latin;mso-bidi-theme-font:minor-bidi;mso-ansi-language:RU;mso-fareast-language:&#xa;EN-US;mso-bidi-language:AR-SA&quot;&gt;Пользователь &lt;/span&gt;&#xa;&#xa;&#xa;&#xa;" style="shape=umlActor;verticalLabelPosition=bottom;verticalAlign=top;html=1;outlineConnect=0;" parent="1" vertex="1">
          <mxGeometry x="90" y="190" width="30" height="60" as="geometry" />
        </mxCell>
        <mxCell id="YYnpD3Vnh-vj3eKZaliB-29" style="rounded=0;orthogonalLoop=1;jettySize=auto;html=1;" parent="1" source="YYnpD3Vnh-vj3eKZaliB-4" target="YYnpD3Vnh-vj3eKZaliB-21" edge="1">
          <mxGeometry relative="1" as="geometry">
            <mxPoint x="257.57359312880703" y="389.99786437626904" as="targetPoint" />
          </mxGeometry>
        </mxCell>
        <mxCell id="YYnpD3Vnh-vj3eKZaliB-30" style="rounded=0;orthogonalLoop=1;jettySize=auto;html=1;" parent="1" source="YYnpD3Vnh-vj3eKZaliB-4" target="YYnpD3Vnh-vj3eKZaliB-22" edge="1">
          <mxGeometry relative="1" as="geometry">
            <mxPoint x="482.39999999999986" y="397.14" as="targetPoint" />
          </mxGeometry>
        </mxCell>
        <mxCell id="YYnpD3Vnh-vj3eKZaliB-44" style="edgeStyle=orthogonalEdgeStyle;rounded=0;orthogonalLoop=1;jettySize=auto;html=1;" parent="1" source="YYnpD3Vnh-vj3eKZaliB-4" target="YYnpD3Vnh-vj3eKZaliB-3" edge="1">
          <mxGeometry relative="1" as="geometry" />
        </mxCell>
        <mxCell id="ApP4N1SIi2xNddI3PV_7-1" style="rounded=0;orthogonalLoop=1;jettySize=auto;html=1;" edge="1" parent="1" source="YYnpD3Vnh-vj3eKZaliB-4" target="YYnpD3Vnh-vj3eKZaliB-18">
          <mxGeometry relative="1" as="geometry" />
        </mxCell>
        <mxCell id="ApP4N1SIi2xNddI3PV_7-2" style="rounded=0;orthogonalLoop=1;jettySize=auto;html=1;" edge="1" parent="1" source="YYnpD3Vnh-vj3eKZaliB-4" target="YYnpD3Vnh-vj3eKZaliB-17">
          <mxGeometry relative="1" as="geometry" />
        </mxCell>
        <mxCell id="YYnpD3Vnh-vj3eKZaliB-4" value="&#xa;&lt;span style=&quot;font-size:14.0pt;line-height:150%;&#xa;font-family:&amp;quot;Times New Roman&amp;quot;,serif;mso-fareast-font-family:Calibri;mso-fareast-theme-font:&#xa;minor-latin;mso-bidi-theme-font:minor-bidi;mso-ansi-language:RU;mso-fareast-language:&#xa;EN-US;mso-bidi-language:AR-SA&quot;&gt;Менеджер&lt;/span&gt;&#xa;&#xa;&#xa;&#xa;" style="shape=umlActor;verticalLabelPosition=bottom;verticalAlign=top;html=1;outlineConnect=0;" parent="1" vertex="1">
          <mxGeometry x="90" y="300" width="30" height="60" as="geometry" />
        </mxCell>
        <mxCell id="YYnpD3Vnh-vj3eKZaliB-26" style="rounded=0;orthogonalLoop=1;jettySize=auto;html=1;" parent="1" source="YYnpD3Vnh-vj3eKZaliB-5" target="YYnpD3Vnh-vj3eKZaliB-24" edge="1">
          <mxGeometry relative="1" as="geometry" />
        </mxCell>
        <mxCell id="YYnpD3Vnh-vj3eKZaliB-27" style="rounded=0;orthogonalLoop=1;jettySize=auto;html=1;" parent="1" source="YYnpD3Vnh-vj3eKZaliB-5" target="YYnpD3Vnh-vj3eKZaliB-23" edge="1">
          <mxGeometry relative="1" as="geometry" />
        </mxCell>
        <mxCell id="YYnpD3Vnh-vj3eKZaliB-28" style="rounded=0;orthogonalLoop=1;jettySize=auto;html=1;" parent="1" source="YYnpD3Vnh-vj3eKZaliB-5" target="YYnpD3Vnh-vj3eKZaliB-25" edge="1">
          <mxGeometry relative="1" as="geometry" />
        </mxCell>
        <mxCell id="YYnpD3Vnh-vj3eKZaliB-46" style="edgeStyle=orthogonalEdgeStyle;rounded=0;orthogonalLoop=1;jettySize=auto;html=1;" parent="1" source="YYnpD3Vnh-vj3eKZaliB-5" target="YYnpD3Vnh-vj3eKZaliB-4" edge="1">
          <mxGeometry relative="1" as="geometry" />
        </mxCell>
        <mxCell id="ApP4N1SIi2xNddI3PV_7-4" style="rounded=0;orthogonalLoop=1;jettySize=auto;html=1;" edge="1" parent="1" source="YYnpD3Vnh-vj3eKZaliB-5" target="ApP4N1SIi2xNddI3PV_7-3">
          <mxGeometry relative="1" as="geometry" />
        </mxCell>
        <mxCell id="YYnpD3Vnh-vj3eKZaliB-5" value="&#xa;&lt;span style=&quot;font-size:14.0pt;line-height:150%;&#xa;font-family:&amp;quot;Times New Roman&amp;quot;,serif;mso-fareast-font-family:Calibri;mso-fareast-theme-font:&#xa;minor-latin;mso-bidi-theme-font:minor-bidi;mso-ansi-language:RU;mso-fareast-language:&#xa;EN-US;mso-bidi-language:AR-SA&quot;&gt;Администратор&lt;/span&gt;&#xa;&#xa;&#xa;&#xa;" style="shape=umlActor;verticalLabelPosition=bottom;verticalAlign=top;html=1;outlineConnect=0;" parent="1" vertex="1">
          <mxGeometry x="90" y="414.14" width="30" height="60" as="geometry" />
        </mxCell>
        <mxCell id="YYnpD3Vnh-vj3eKZaliB-7" value="просмотр главной страницы сайта" style="ellipse;whiteSpace=wrap;html=1;" parent="1" vertex="1">
          <mxGeometry x="510" y="64" width="120" height="50" as="geometry" />
        </mxCell>
        <mxCell id="YYnpD3Vnh-vj3eKZaliB-9" value="просмотр информации о сайте" style="ellipse;whiteSpace=wrap;html=1;" parent="1" vertex="1">
          <mxGeometry x="510" y="10" width="120" height="50" as="geometry" />
        </mxCell>
        <mxCell id="YYnpD3Vnh-vj3eKZaliB-10" value="регистрация в системе" style="ellipse;whiteSpace=wrap;html=1;" parent="1" vertex="1">
          <mxGeometry x="380" y="10" width="120" height="40" as="geometry" />
        </mxCell>
        <mxCell id="YYnpD3Vnh-vj3eKZaliB-11" value="вход в систему" style="ellipse;whiteSpace=wrap;html=1;" parent="1" vertex="1">
          <mxGeometry x="230" y="10" width="120" height="40" as="geometry" />
        </mxCell>
        <mxCell id="YYnpD3Vnh-vj3eKZaliB-13" value="Создание посылки" style="ellipse;whiteSpace=wrap;html=1;" parent="1" vertex="1">
          <mxGeometry x="220" y="80" width="120" height="50" as="geometry" />
        </mxCell>
        <mxCell id="YYnpD3Vnh-vj3eKZaliB-14" value="Просмотр списка своих отправленных и полученных посылок" style="ellipse;whiteSpace=wrap;html=1;" parent="1" vertex="1">
          <mxGeometry x="350" y="90" width="140" height="60" as="geometry" />
        </mxCell>
        <mxCell id="YYnpD3Vnh-vj3eKZaliB-15" value="Отслеживание статуса своих посылок" style="ellipse;whiteSpace=wrap;html=1;" parent="1" vertex="1">
          <mxGeometry x="510" y="120" width="120" height="55" as="geometry" />
        </mxCell>
        <mxCell id="YYnpD3Vnh-vj3eKZaliB-17" value="Изменение статуса посылок" style="ellipse;whiteSpace=wrap;html=1;" parent="1" vertex="1">
          <mxGeometry x="230" y="219" width="120" height="40" as="geometry" />
        </mxCell>
        <mxCell id="YYnpD3Vnh-vj3eKZaliB-18" value="Просмотр списка всех посылок на своем участке" style="ellipse;whiteSpace=wrap;html=1;" parent="1" vertex="1">
          <mxGeometry x="510" y="227.5" width="120" height="55" as="geometry" />
        </mxCell>
        <mxCell id="YYnpD3Vnh-vj3eKZaliB-20" value="редактирование профиля" style="ellipse;whiteSpace=wrap;html=1;" parent="1" vertex="1">
          <mxGeometry x="510" y="179" width="120" height="40" as="geometry" />
        </mxCell>
        <mxCell id="YYnpD3Vnh-vj3eKZaliB-21" value="Создание и редактирование маршрутов для посылок" style="ellipse;whiteSpace=wrap;html=1;" parent="1" vertex="1">
          <mxGeometry x="370" y="211.5" width="120" height="55" as="geometry" />
        </mxCell>
        <mxCell id="YYnpD3Vnh-vj3eKZaliB-22" value="Просмотр сводной статистики по посылкам на своем участке" style="ellipse;whiteSpace=wrap;html=1;" parent="1" vertex="1">
          <mxGeometry x="490" y="290" width="140" height="60" as="geometry" />
        </mxCell>
        <mxCell id="YYnpD3Vnh-vj3eKZaliB-23" value="Назначение и изменение ролей пользователей" style="ellipse;whiteSpace=wrap;html=1;" parent="1" vertex="1">
          <mxGeometry x="370" y="340" width="120" height="50" as="geometry" />
        </mxCell>
        <mxCell id="YYnpD3Vnh-vj3eKZaliB-24" value="Управление объектами &quot;Location&quot; на уровне организации" style="ellipse;whiteSpace=wrap;html=1;" parent="1" vertex="1">
          <mxGeometry x="230" y="450" width="190" height="40" as="geometry" />
        </mxCell>
        <mxCell id="YYnpD3Vnh-vj3eKZaliB-25" value="Управление учетными записями пользователей" style="ellipse;whiteSpace=wrap;html=1;" parent="1" vertex="1">
          <mxGeometry x="230" y="330" width="120" height="50" as="geometry" />
        </mxCell>
        <mxCell id="ApP4N1SIi2xNddI3PV_7-3" value="Просмотр и анализ сводной статистики по всем посылкам и сотрудникам" style="ellipse;whiteSpace=wrap;html=1;" vertex="1" parent="1">
          <mxGeometry x="440" y="410" width="156" height="60" as="geometry" />
        </mxCell>
      </root>
    </mxGraphModel>
  </diagram>
</mxfile>
